<?xml version="1.0" standalone="yes"?>
<svg xmlns="http://www.w3.org/2000/svg" width="361" height="331">
<path style="fill:#ffffff; stroke:none;" d="M0 0L0 331L361 331L361 0L0 0z"/>
<path style="fill:#999898; stroke:none;" d="M12 7L13 8L12 7M32 7L33 8L32 7M52 7L53 8L52 7M72 7L73 8L72 7M92 7L93 8L92 7M112 7L113 8L112 7M132 7L133 8L132 7M152 7L153 8L152 7M172 7L173 8L172 7M192 7L193 8L192 7M212 7L213 8L212 7M232 7L233 8L232 7M252 7L253 8L252 7M272 7L273 8L272 7M292 7L293 8L292 7M312 7L313 8L312 7M332 7L333 8L332 7M352 7L353 8L352 7M12 27L13 28L12 27M32 27L33 28L32 27M52 27L53 28L52 27M72 27L73 28L72 27M92 27L93 28L92 27M112 27L113 28L112 27M132 27L133 28L132 27M152 27L153 28L152 27M172 27L173 28L172 27M192 27L193 28L192 27M212 27L213 28L212 27M232 27L233 28L232 27M252 27L253 28L252 27M272 27L273 28L272 27M292 27L293 28L292 27M312 27L313 28L312 27M332 27L333 28L332 27M352 27L353 28L352 27z"/>
<path style="fill:#f3e0dd; stroke:none;" d="M148 37C149.248 37.6848 149.548 37.7488 151 38C149.752 37.3152 149.452 37.2512 148 37z"/>
<path style="fill:#dc948b; stroke:none;" d="M151 37C152.769 37.7789 154.036 37.9124 156 38C154.231 37.221 152.964 37.0876 151 37z"/>
<path style="fill:#f69688; stroke:none;" d="M156 37C160.724 38.9822 166.91 38 172 38C167.276 36.0178 161.09 37 156 37z"/>
<path style="fill:#dc948b; stroke:none;" d="M172 37C173.248 37.6848 173.548 37.7488 175 38C173.752 37.3152 173.452 37.2512 172 37z"/>
<path style="fill:#efb5ad; stroke:none;" d="M175 37C176.248 37.6848 176.549 37.7488 178 38C176.752 37.3152 176.452 37.2512 175 37z"/>
<path style="fill:#f3e0dd; stroke:none;" d="M178 37C179.769 37.7789 181.036 37.9124 183 38C181.231 37.221 179.964 37.0876 178 37z"/>
<path style="fill:#efb5ad; stroke:none;" d="M142.667 38.3333C142.222 38.7778 143.278 38.7221 143.333 38.6667C143.778 38.2224 142.722 38.2777 142.667 38.3333z"/>
<path style="fill:#f69688; stroke:none;" d="M144.667 38.3333C144.222 38.7778 145.278 38.7222 145.333 38.6667C145.778 38.2224 144.722 38.2777 144.667 38.3333z"/>
<path style="fill:#f15743; stroke:none;" d="M146 38.4252C129.547 40.6647 113.216 46.6195 99 55.2037C85.1065 63.5931 72.9 74.8277 63.4282 88C21.808 145.881 37.1345 228.696 97 267.655C108.098 274.878 121.021 280.52 134 283.332C149.385 286.665 164.353 287.819 180 285.711C198.098 283.273 215.447 277.64 231 267.935C244.806 259.32 257.436 247.422 266.653 234C304.096 179.476 292.868 101.356 239 61.7346C226.367 52.4422 212.141 45.6599 197 41.5826C181.142 37.3122 162.333 36.2019 146 38.4252z"/>
<path style="fill:#f69688; stroke:none;" d="M180 38C181.248 38.6848 181.548 38.7488 183 39C181.752 38.3152 181.452 38.2512 180 38z"/>
<path style="fill:#efb5ad; stroke:none;" d="M183.667 38.3333C183.222 38.7778 184.278 38.7221 184.333 38.6667C184.778 38.2224 183.722 38.2777 183.667 38.3333z"/>
<path style="fill:#f3ccc7; stroke:none;" d="M136 39C137.248 39.6848 137.548 39.7488 139 40C137.752 39.3152 137.452 39.2512 136 39M189 39C190.248 39.6848 190.548 39.7488 192 40C190.752 39.3152 190.452 39.2512 189 39z"/>
<path style="fill:#dc948b; stroke:none;" d="M133.667 40.3333C133.222 40.7778 134.278 40.7222 134.333 40.6667C134.778 40.2224 133.722 40.2777 133.667 40.3333z"/>
<path style="fill:#f69688; stroke:none;" d="M191 40C192.248 40.6848 192.548 40.7488 194 41C192.752 40.3152 192.452 40.2512 191 40z"/>
<path style="fill:#f3e0dd; stroke:none;" d="M194.667 40.3333C194.222 40.7778 195.278 40.7222 195.333 40.6667C195.778 40.2224 194.722 40.2777 194.667 40.3333z"/>
<path style="fill:#efb5ad; stroke:none;" d="M129.667 41.3333C129.222 41.7778 130.278 41.7221 130.333 41.6667C130.778 41.2224 129.722 41.2777 129.667 41.3333z"/>
<path style="fill:#f3ccc7; stroke:none;" d="M197.667 41.3333C197.222 41.7778 198.278 41.7221 198.333 41.6667C198.778 41.2224 197.722 41.2777 197.667 41.3333M125.667 42.3333C125.222 42.7777 126.278 42.7222 126.333 42.6667C126.778 42.2222 125.722 42.2778 125.667 42.3333z"/>
<path style="fill:#f69688; stroke:none;" d="M127.667 42.3333C127.222 42.7778 128.278 42.7222 128.333 42.6667C128.778 42.2222 127.722 42.2778 127.667 42.3333z"/>
<path style="fill:#dc948b; stroke:none;" d="M199.667 42.3333C199.222 42.7778 200.278 42.7221 200.333 42.6667C200.778 42.2224 199.722 42.2777 199.667 42.3333z"/>
<path style="fill:#f3e0dd; stroke:none;" d="M201.667 42.3333C201.222 42.7779 202.278 42.7221 202.333 42.6667C202.778 42.2224 201.722 42.2777 201.667 42.3333z"/>
<path style="fill:#f3ccc7; stroke:none;" d="M122 43C123.248 43.6848 123.548 43.7488 125 44C123.752 43.3152 123.452 43.2512 122 43z"/>
<path style="fill:#efb5ad; stroke:none;" d="M203.667 43.3333C203.222 43.7779 204.278 43.7221 204.333 43.6667C204.778 43.2224 203.722 43.2777 203.667 43.3333z"/>
<path style="fill:#f69688; stroke:none;" d="M120.667 44.3333C120.222 44.7777 121.278 44.7222 121.333 44.6667C121.778 44.2222 120.722 44.2777 120.667 44.3333M205.667 44.3333C205.222 44.7779 206.278 44.7221 206.333 44.6667C206.778 44.2224 205.722 44.2777 205.667 44.3333z"/>
<path style="fill:#f3e0dd; stroke:none;" d="M207.667 44.3333C207.222 44.7779 208.278 44.7221 208.333 44.6667C208.778 44.2224 207.722 44.2777 207.667 44.3333z"/>
<path style="fill:#f69688; stroke:none;" d="M118.667 45.3333C118.222 45.7777 119.278 45.7222 119.333 45.6667C119.778 45.2222 118.722 45.2778 118.667 45.3333M209 45L210 46L209 45z"/>
<path style="fill:#f3ccc7; stroke:none;" d="M115 46L116 47L115 46z"/>
<path style="fill:#f69688; stroke:none;" d="M116 46L117 47L116 46z"/>
<path style="fill:#efb5ad; stroke:none;" d="M212 46L213 47L212 46z"/>
<path style="fill:#999898; stroke:none;" d="M12 47L13 48L12 47M32 47L33 48L32 47M52 47L53 48L52 47M72 47L73 48L72 47M92 47L93 48L92 47M112 47L113 48L112 47z"/>
<path style="fill:#f3ccc7; stroke:none;" d="M113 47L114 48L113 47z"/>
<path style="fill:#efb5ad; stroke:none;" d="M214 47L215 48L214 47z"/>
<path style="fill:#999898; stroke:none;" d="M232 47L233 48L232 47M252 47L253 48L252 47M272 47L273 48L272 47M292 47L293 48L292 47M312 47L313 48L312 47M332 47L333 48L332 47M352 47L353 48L352 47z"/>
<path style="fill:#efb5ad; stroke:none;" d="M111 48L112 49L111 48z"/>
<path style="fill:#f3ccc7; stroke:none;" d="M216.667 48.3333C216.222 48.7779 217.278 48.7221 217.333 48.6667C217.778 48.2224 216.722 48.2777 216.667 48.3333z"/>
<path style="fill:#f69688; stroke:none;" d="M109.667 49.3333C109.222 49.7777 110.278 49.7222 110.333 49.6667C110.778 49.2222 109.722 49.2778 109.667 49.3333M218 49L219 50L218 49z"/>
<path style="fill:#efb5ad; stroke:none;" d="M107 50L108 51L107 50z"/>
<path style="fill:#f69688; stroke:none;" d="M220 50L221 51L220 50z"/>
<path style="fill:#efb5ad; stroke:none;" d="M105 51L106 52L105 51z"/>
<path style="fill:#f69688; stroke:none;" d="M222 51L223 52L222 51z"/>
<path style="fill:#f3ccc7; stroke:none;" d="M103 52L104 53L103 52z"/>
<path style="fill:#f69688; stroke:none;" d="M224 52L225 53L224 52z"/>
<path style="fill:#efb5ad; stroke:none;" d="M226 53L227 54L226 53z"/>
<path style="fill:#f69688; stroke:none;" d="M100 54L101 55L100 54z"/>
<path style="fill:#efb5ad; stroke:none;" d="M98 55L99 56L98 55z"/>
<path style="fill:#f69688; stroke:none;" d="M229 55L230 56L229 55z"/>
<path style="fill:#efb5ad; stroke:none;" d="M231 56L232 57L231 56M95 57L96 58L95 57M234 58L235 59L234 58M92 59L93 60L92 59z"/>
<path style="fill:#f69688; stroke:none;" d="M235 59L236 60L235 59z"/>
<path style="fill:#efb5ad; stroke:none;" d="M237 60L238 61L237 60M89 61L90 62L89 61z"/>
<path style="fill:#f69688; stroke:none;" d="M238 61L239 62L238 61z"/>
<path style="fill:#efb5ad; stroke:none;" d="M88 62L89 63L88 62z"/>
<path style="fill:#f69688; stroke:none;" d="M87 63L88 64L87 63z"/>
<path style="fill:#f3ccc7; stroke:none;" d="M241 63L242 64L241 63z"/>
<path style="fill:#efb5ad; stroke:none;" d="M242 64L243 65L242 64M84 65L85 66L84 65z"/>
<path style="fill:#f69688; stroke:none;" d="M243 65L244 66L243 65z"/>
<path style="fill:#efb5ad; stroke:none;" d="M83 66L84 67L83 66z"/>
<path style="fill:#999898; stroke:none;" d="M12 67L13 68L12 67M32 67L33 68L32 67M52 67L53 68L52 67M72 67L73 68L72 67z"/>
<path style="fill:#f69688; stroke:none;" d="M82 67L83 68L82 67z"/>
<path style="fill:#999898; stroke:none;" d="M252 67L253 68L252 67M272 67L273 68L272 67M292 67L293 68L292 67M312 67L313 68L312 67M332 67L333 68L332 67M352 67L353 68L352 67z"/>
<path style="fill:#f69688; stroke:none;" d="M81 68L82 69L81 68z"/>
<path style="fill:#f3ccc7; stroke:none;" d="M247 68L248 69L247 68z"/>
<path style="fill:#efb5ad; stroke:none;" d="M248 69L249 70L248 69M249 70L250 71L249 70z"/>
<path style="fill:#f3ccc7; stroke:none;" d="M77 71L78 72L77 71z"/>
<path style="fill:#f69688; stroke:none;" d="M250 71L251 72L250 71M251 72L252 73L251 72M252 73L253 74L252 73M253 74L254 75L253 74M254 75L255 76L254 75z"/>
<path style="fill:#efb5ad; stroke:none;" d="M255 76L256 77L255 76M256 77L257 78L256 77z"/>
<path style="fill:#f3ccc7; stroke:none;" d="M257 78L258 79L257 78z"/>
<path style="fill:#f69688; stroke:none;" d="M70 79L71 80L70 79M69 80L70 81L69 80M68 81L69 82L68 81z"/>
<path style="fill:#efb5ad; stroke:none;" d="M67 82L68 83L67 82z"/>
<path style="fill:#f69688; stroke:none;" d="M261 83L262 84L261 83z"/>
<path style="fill:#efb5ad; stroke:none;" d="M262 84L263 85L262 84z"/>
<path style="fill:#f69688; stroke:none;" d="M65 85L66 86L65 85z"/>
<path style="fill:#efb5ad; stroke:none;" d="M64 86L65 87L64 86z"/>
<path style="fill:#999898; stroke:none;" d="M12 87L13 88L12 87M32 87L33 88L32 87M52 87L53 88L52 87z"/>
<path style="fill:#efb5ad; stroke:none;" d="M63 87L64 88L63 87z"/>
<path style="fill:#999898; stroke:none;" d="M272 87L273 88L272 87M292 87L293 88L292 87M312 87L313 88L312 87M332 87L333 88L332 87M352 87L353 88L352 87z"/>
<path style="fill:#efb5ad; stroke:none;" d="M265 88L266 89L265 88z"/>
<path style="fill:#f69688; stroke:none;" d="M62 89L63 90L62 89z"/>
<path style="fill:#efb5ad; stroke:none;" d="M61 90L62 91L61 90M267 91L268 92L267 91z"/>
<path style="fill:#f69688; stroke:none;" d="M60 92L61 93L60 92z"/>
<path style="fill:#f3ccc7; stroke:none;" d="M268 92L269 93L268 92z"/>
<path style="fill:#efb5ad; stroke:none;" d="M59 93L60 94L59 93z"/>
<path style="fill:#f69688; stroke:none;" d="M269 94L270 95L269 94M58 95L59 96L58 95z"/>
<path style="fill:#f3ccc7; stroke:none;" d="M270 95L271 96L270 95z"/>
<path style="fill:#efb5ad; stroke:none;" d="M57 96L58 97L57 96M271 97L272 98L271 97M56 98L57 99L56 98M272 99L273 100L272 99z"/>
<path style="fill:#f3ccc7; stroke:none;" d="M54 101L55 102L54 101z"/>
<path style="fill:#efb5ad; stroke:none;" d="M274 102L275 103L274 102z"/>
<path style="fill:#f3ccc7; stroke:none;" d="M53 103L54 104L53 103z"/>
<path style="fill:#efb5ad; stroke:none;" d="M275 104L276 105L275 104M52 105L53 106L52 105M276 106L277 107L276 106z"/>
<path style="fill:#999898; stroke:none;" d="M12 107L13 108L12 107M32 107L33 108L32 107z"/>
<path style="fill:#f69688; stroke:none;" d="M51.3333 107.667C51.2777 107.722 51.2223 108.778 51.6667 108.333C51.7222 108.278 51.7778 107.222 51.3333 107.667z"/>
<path style="fill:#999898; stroke:none;" d="M292 107L293 108L292 107M312 107L313 108L312 107M332 107L333 108L332 107M352 107L353 108L352 107z"/>
<path style="fill:#f69688; stroke:none;" d="M277.333 108.667C277.278 108.722 277.222 109.778 277.667 109.333C277.722 109.278 277.778 108.222 277.333 108.667M50.3333 109.667C50.2778 109.722 50.2222 110.778 50.6667 110.333C50.7222 110.278 50.7778 109.222 50.3333 109.667M279 113L280 114L279 113z"/>
<path style="fill:#efb5ad; stroke:none;" d="M48 114L49 115L48 114z"/>
<path style="fill:#f69688; stroke:none;" d="M280.333 115.667C280.278 115.722 280.222 116.778 280.667 116.333C280.722 116.278 280.778 115.222 280.333 115.667z"/>
<path style="fill:#efb5ad; stroke:none;" d="M47 116L48 117L47 116z"/>
<path style="fill:#f69688; stroke:none;" d="M281.333 117.667C281.278 117.722 281.222 118.778 281.667 118.333C281.722 118.278 281.778 117.222 281.333 117.667z"/>
<path style="fill:#efb5ad; stroke:none;" d="M46.3333 118.667C46.2777 118.722 46.2222 119.778 46.6667 119.333C46.7222 119.278 46.7778 118.222 46.3333 118.667z"/>
<path style="fill:#f69688; stroke:none;" d="M97 119L97 146C97 149.707 96.0452 154.418 99 157C96.4136 146.136 96.4136 129.864 99 119L97 119M101 122C102.416 121.528 102.814 121.186 104 120L104 130C105.873 126.761 105.01 122.722 105 119C103.051 119.936 102.45 120.392 101 122M114 119L115 123C115.751 120.954 115.656 120.404 114 119z"/>
<path style="fill:#efb5ad; stroke:none;" d="M163 119L163 157C164.478 155.522 164 151.942 164 149L164 130C164 126.861 163.473 123.545 165 121L166 122C164.897 120.543 164.457 120.103 163 119M179 119C179 125.732 179.233 132.358 178 139C181.523 135.922 181.241 122.877 179 119z"/>
<path style="fill:#f69688; stroke:none;" d="M185 119L186 120L185 119z"/>
<path style="fill:#dc948b; stroke:none;" d="M208 119L208 148C211.596 139.431 207.818 128.167 210 119L208 119z"/>
<path style="fill:#f69688; stroke:none;" d="M210 120C212.194 121.345 212.589 121.072 215 120C215 130.251 215.876 140.893 214 151C216.463 147.394 216 143.251 216 139L216 119L210 120z"/>
<path style="fill:#f3e0dd; stroke:none;" d="M222 119C226.051 123.136 232.949 123.136 237 119L222 119z"/>
<path style="fill:#f3ccc7; stroke:none;" d="M45 120L45 123C45.6961 121.446 45.6961 121.554 45 120z"/>
<path style="fill:#f3e0dd; stroke:none;" d="M98 120L98 156C99.6384 153.166 99.0364 150.26 99.0039 147C98.9441 141.004 98.9441 134.996 99.0039 129C99.0364 125.74 99.6384 122.834 98 120M103 120C100.371 124.927 99.4825 133.357 103 138L104 137C101.885 132.008 102 127.342 102 122C102.81 124.729 102.979 127.15 103 130C104.346 126.793 104.346 123.207 103 120M114 120C114.031 121.832 113.921 121.559 115 123C114.749 121.548 114.685 121.248 114 120z"/>
<path style="fill:#efb5ad; stroke:none;" d="M140 120L140 122C141.635 121.455 141.455 121.635 142 120L140 120z"/>
<path style="fill:#f3ccc7; stroke:none;" d="M184 120C186.867 132.042 183.664 144.848 185 157C188.205 149.363 186.004 137.268 186 129C185.999 125.683 186.604 122.276 184 120z"/>
<path style="fill:#f3e0dd; stroke:none;" d="M209 120L209 147C211.541 140.945 211.541 126.055 209 120z"/>
<path style="fill:#ffffff; stroke:none;" d="M214 120C211.434 128.682 215.07 138.419 212.347 146.996C210.219 153.701 204.535 155.92 199 152C216.09 156.02 211 131.77 211 121C207.779 128.677 212.458 138.294 209.142 145.956C206.227 152.692 200.545 149.435 199 144C197.045 146.852 197.872 148.822 199 152C197.3 149.727 196.151 147.594 195 145C191.685 153.148 201.957 159.22 208.957 155.542C217.561 151.022 215.001 138.019 215 130C215 126.581 215.328 123.166 214 120M224 120C227.432 121.44 231.3 121 235 121C231.568 119.56 227.7 120 224 120z"/>
<path style="fill:#f69688; stroke:none;" d="M236 120L237 121L236 120M282.333 120.667C282.278 120.722 282.222 121.778 282.667 121.333C282.722 121.278 282.778 120.222 282.333 120.667z"/>
<path style="fill:#ffffff; stroke:none;" d="M141 121C137.541 127.495 136.257 140.653 128 142C135.857 147.849 138.876 132.376 140 127L142 127C143.879 133.522 146.675 145.211 155 143C153.231 142.221 151.964 142.088 150 142C148.888 135.561 145.315 125.895 141 121z"/>
<path style="fill:#f69688; stroke:none;" d="M142 121L143 122L142 121z"/>
<path style="fill:#ffffff; stroke:none;" d="M164 121L164 156C168.711 149.782 166 135.649 166 128C170.389 131.55 173.891 136.3 177 141C174.039 137.908 171.399 134.599 168 132L168 155C170.191 149.778 169 142.632 169 137C175.023 142.345 178.714 149.915 185 155L185 121C180.405 127.065 183 140.55 183 148C180.585 145.894 178.776 143.67 177 141L181 144L181 121C178.809 126.222 180 133.368 180 139C174.056 133.572 170.455 125.94 164 121z"/>
<path style="fill:#f3e0dd; stroke:none;" d="M181 121L181 145C183.349 139.403 183.349 126.597 181 121z"/>
<path style="fill:#efb5ad; stroke:none;" d="M183 121L184 122L183 121z"/>
<path style="fill:#f69688; stroke:none;" d="M235.333 121.667C235.278 121.722 235.222 122.778 235.667 122.333C235.722 122.278 235.778 121.222 235.333 121.667z"/>
<path style="fill:#ffffff; stroke:none;" d="M99 122L99 154C101.599 147.806 100 138.686 100 132C99.9998 128.581 100.328 125.166 99 122z"/>
<path style="fill:#efb5ad; stroke:none;" d="M100 122L100 145C100 148.516 99.2137 152.565 102 155C100.844 150.145 99.8491 144.159 103 140C100.851 134.104 102.325 127.54 100 122z"/>
<path style="fill:#ffffff; stroke:none;" d="M102 122L102 135C105.352 133.024 107.958 130.379 111 128L102 138C105.878 143.505 111.356 150.135 118 152C114.165 146.556 108.835 142.444 105 137C110.503 134.337 115.38 128.876 119 124C116.553 124.309 115.166 124.805 113 126L114 122C109.805 123.956 106.767 127.35 103 130C102.993 127.165 103.098 124.613 102 122z"/>
<path style="fill:#f69688; stroke:none;" d="M166 122L167 123L166 122z"/>
<path style="fill:#f3ccc7; stroke:none;" d="M182 122L182 145L177 141C178.433 144.183 179.969 146.242 183 148C183 140.239 185.008 129.169 182 122z"/>
<path style="fill:#f3e0dd; stroke:none;" d="M211 122L211 147C213.413 141.25 213.413 127.75 211 122z"/>
<path style="fill:#f3ccc7; stroke:none;" d="M212 122L212 127C212.83 124.969 212.83 124.031 212 122M224 122C225.769 122.779 227.036 122.912 229 123L229 153C226.597 153.168 225.54 153.197 224 155C227.694 154.121 231.214 154.003 235 154C233.231 153.221 231.964 153.088 230 153L230 123L235 123C231.568 121.56 227.7 122 224 122z"/>
<path style="fill:#f3e0dd; stroke:none;" d="M44.3333 123.667C44.2778 123.722 44.2222 124.778 44.6667 124.333C44.7222 124.278 44.7778 123.222 44.3333 123.667z"/>
<path style="fill:#f3ccc7; stroke:none;" d="M114 123C113.014 124.479 113 124.203 113 126C114.289 124.557 114.401 124.766 114 123z"/>
<path style="fill:#dc948b; stroke:none;" d="M115 123C116.506 123.683 117.315 123.826 119 124C117.494 123.317 116.685 123.174 115 123z"/>
<path style="fill:#f69688; stroke:none;" d="M139 123L140 124L139 123M143 123L144 124L143 123z"/>
<path style="fill:#efb5ad; stroke:none;" d="M223 123L224 124L223 123z"/>
<path style="fill:#ffffff; stroke:none;" d="M223 124C224.506 124.683 225.315 124.826 227 125L227 151L223 151C225.057 152.582 226.388 152.826 229 153L229 123C226.795 123.094 225.106 123.356 223 124z"/>
<path style="fill:#f3e0dd; stroke:none;" d="M230 123L230 153C231.328 149.834 231 146.419 231 143C231 136.846 232.395 128.707 230 123z"/>
<path style="fill:#ffffff; stroke:none;" d="M231 123L231 153C233.205 152.906 234.894 152.644 237 152C235.231 151.221 233.964 151.088 232 151L232 125L236 125L236 123L231 123z"/>
<path style="fill:#f69688; stroke:none;" d="M283.333 123.667C283.278 123.722 283.222 124.778 283.667 124.333C283.722 124.278 283.778 123.222 283.333 123.667z"/>
<path style="fill:#efb5ad; stroke:none;" d="M143 124L144 125L143 124z"/>
<path style="fill:#dc948b; stroke:none;" d="M222 124C223.314 125.618 223.877 125.693 226 126C224.623 125.089 223.56 124.596 222 124M233 125C234.769 125.779 236.036 125.912 238 126C236.098 124.844 235.278 124.844 233 125M44.3333 125.667C44.2777 125.722 44.2222 126.778 44.6667 126.333C44.7222 126.278 44.7778 125.222 44.3333 125.667z"/>
<path style="fill:#efb5ad; stroke:none;" d="M168 125L169 126L168 125M226 125L226 151C228.477 145.097 228.477 130.903 226 125z"/>
<path style="fill:#f3e0dd; stroke:none;" d="M232.333 125.667C232.278 125.722 232.222 126.778 232.667 126.333C232.722 126.278 232.778 125.222 232.333 125.667z"/>
<path style="fill:#efb5ad; stroke:none;" d="M138 126L139 127L138 126z"/>
<path style="fill:#f3ccc7; stroke:none;" d="M144.333 126.667C144.278 126.722 144.222 127.778 144.667 127.333C144.722 127.278 144.778 126.222 144.333 126.667z"/>
<path style="fill:#efb5ad; stroke:none;" d="M169 126L170 127L169 126M284.333 126.667C284.278 126.722 284.222 127.778 284.667 127.333C284.722 127.278 284.778 126.222 284.333 126.667z"/>
<path style="fill:#999898; stroke:none;" d="M12 127L13 128L12 127M32 127L33 128L32 127M112 127L113 128L112 127z"/>
<path style="fill:#f3ccc7; stroke:none;" d="M140 127C138.136 133.442 136.594 142.793 129 144C130.769 144.779 132.036 144.912 134 145C132.105 148.262 130.664 151.276 130 155C132.365 152.381 133.371 147.957 136.39 146.028C139.739 143.888 145.178 145.13 149 144C149.188 148.102 150.094 151.364 152 155C152.586 151.658 150.784 148.311 150 145L154 145C146.953 141.24 144.997 134.198 142 127L140 127z"/>
<path style="fill:#f69688; stroke:none;" d="M170 127L171 128L170 127z"/>
<path style="fill:#999898; stroke:none;" d="M212 127L213 128L212 127M232 127L233 128L232 127M292 127L293 128L292 127M312 127L313 128L312 127M332 127L333 128L332 127M352 127L353 128L352 127z"/>
<path style="fill:#f69688; stroke:none;" d="M43.3333 128.667C43.2777 128.722 43.2222 129.778 43.6667 129.333C43.7222 129.278 43.7778 128.222 43.3333 128.667z"/>
<path style="fill:#f3ccc7; stroke:none;" d="M108 131C109.457 129.897 109.897 129.457 111 128C108.876 128.899 108.899 128.876 108 131M114 128L115 129L114 128z"/>
<path style="fill:#f69688; stroke:none;" d="M137 128L138 129L137 128M145 128L146 129L145 128z"/>
<path style="fill:#f3ccc7; stroke:none;" d="M166 128L166 154C168.806 147.313 167 137.233 167 130C170.146 133.963 172.902 137.982 177 141C174.842 136.159 171.148 132.247 168 128L166 128M212 128L212 147C214.02 142.187 214.02 132.813 212 128z"/>
<path style="fill:#f3e0dd; stroke:none;" d="M232 128L232 147C234.02 142.187 234.02 132.813 232 128M145.333 129.667C145.278 129.722 145.222 130.778 145.667 130.333C145.722 130.278 145.778 129.222 145.333 129.667z"/>
<path style="fill:#efb5ad; stroke:none;" d="M136.333 130.667C136.278 130.722 136.222 131.778 136.667 131.333C136.722 131.278 136.778 130.222 136.333 130.667z"/>
<path style="fill:#ffffff; stroke:none;" d="M141 130C139.393 134.72 136.877 139.079 136 144L147 144C145.684 139.179 144.159 133.913 141 130z"/>
<path style="fill:#f3e0dd; stroke:none;" d="M167 130L167 154C169.147 148.884 169.748 134.753 167 130z"/>
<path style="fill:#efb5ad; stroke:none;" d="M172 130L173 131L172 130z"/>
<path style="fill:#f69688; stroke:none;" d="M285 130L285 133C285.696 131.446 285.696 131.554 285 130z"/>
<path style="fill:#f3e0dd; stroke:none;" d="M106 134C107.457 132.897 107.897 132.457 109 131C106.876 131.899 106.899 131.876 106 134z"/>
<path style="fill:#f3ccc7; stroke:none;" d="M146.333 131.667C146.278 131.722 146.222 132.778 146.667 132.333C146.722 132.278 146.778 131.222 146.333 131.667z"/>
<path style="fill:#f69688; stroke:none;" d="M173 131L174 132L173 131M42.3333 132.667C42.2778 132.722 42.2222 133.778 42.6667 133.333C42.7222 133.278 42.7778 132.222 42.3333 132.667M174 132L175 133L174 132z"/>
<path style="fill:#f3ccc7; stroke:none;" d="M103 136C104.457 134.897 104.897 134.457 106 133C103.876 133.899 103.899 133.876 103 136M109 133L110 134L109 133M135.333 133.667C135.278 133.722 135.222 134.778 135.667 134.333C135.722 134.278 135.778 133.222 135.333 133.667z"/>
<path style="fill:#efb5ad; stroke:none;" d="M286 133L286 136C286.696 134.446 286.696 134.554 286 133M41 135L41 138C41.6961 136.446 41.6961 136.554 41 135M134.333 135.667C134.278 135.722 134.222 136.778 134.667 136.333C134.722 136.278 134.778 135.222 134.333 135.667z"/>
<path style="fill:#f3ccc7; stroke:none;" d="M176 135L177 136L176 135z"/>
<path style="fill:#dc948b; stroke:none;" d="M148 136L149 137L148 136z"/>
<path style="fill:#f69688; stroke:none;" d="M177 136L178 137L177 136M286 136L286 139C286.696 137.446 286.696 137.554 286 136z"/>
<path style="fill:#f3e0dd; stroke:none;" d="M287 136L287 139C287.696 137.446 287.696 137.554 287 136z"/>
<path style="fill:#f3ccc7; stroke:none;" d="M105.333 137.667C105.278 137.722 105.222 138.778 105.667 138.333C105.722 138.278 105.778 137.222 105.333 137.667z"/>
<path style="fill:#f69688; stroke:none;" d="M140.333 137.667C140.278 137.722 140.222 138.778 140.667 138.333C140.722 138.278 140.778 137.222 140.333 137.667z"/>
<path style="fill:#f15743; stroke:none;" d="M141 137L140 141L143 141C142.436 139.248 142.081 138.458 141 137z"/>
<path style="fill:#f3e0dd; stroke:none;" d="M169 137C169 143.346 169.478 149.792 168 156C172.09 152.426 169.745 142.272 171 137L169 137z"/>
<path style="fill:#f69688; stroke:none;" d="M41 138L41 141C41.6961 139.446 41.6961 139.554 41 138z"/>
<path style="fill:#efb5ad; stroke:none;" d="M133.333 138.667C133.278 138.722 133.222 139.778 133.667 139.333C133.722 139.278 133.778 138.222 133.333 138.667M142 138L143 139L142 138z"/>
<path style="fill:#f69688; stroke:none;" d="M149 138L150 139L149 138z"/>
<path style="fill:#f3ccc7; stroke:none;" d="M106 139L107 140L106 139z"/>
<path style="fill:#efb5ad; stroke:none;" d="M287 139L287 142C287.696 140.446 287.696 140.554 287 139z"/>
<path style="fill:#f3e0dd; stroke:none;" d="M101 140L101 154C102.796 149.721 101.909 144.581 103 140L101 140z"/>
<path style="fill:#f3ccc7; stroke:none;" d="M103 140C105.512 145.387 110.18 149.605 115 153C112.488 147.613 107.82 143.395 103 140z"/>
<path style="fill:#efb5ad; stroke:none;" d="M107 140L108 141L107 140z"/>
<path style="fill:#f3ccc7; stroke:none;" d="M139.333 140.667C139.278 140.722 139.222 141.778 139.667 141.333C139.722 141.278 139.778 140.222 139.333 140.667M143.333 140.667C143.278 140.722 143.222 141.778 143.667 141.333C143.722 141.278 143.778 140.222 143.333 140.667z"/>
<path style="fill:#efb5ad; stroke:none;" d="M172 140L173 141L172 140M40.3333 141.667C40.2777 141.722 40.2222 142.778 40.6667 142.333C40.7222 142.278 40.7778 141.222 40.3333 141.667z"/>
<path style="fill:#ffffff; stroke:none;" d="M102 141L102 155C103.213 152.11 102.998 149.126 103 146L115 156C113.223 149.668 107.247 144.696 102 141z"/>
<path style="fill:#efb5ad; stroke:none;" d="M108 141L109 142L108 141M127 143L133 142C130.471 140.961 128.824 140.907 127 143M140 141C141.248 141.685 141.548 141.749 143 142C141.752 141.315 141.452 141.251 140 141M150 141C151.941 141.951 153.898 142.439 156 143C154.266 140.997 152.645 141.077 150 141z"/>
<path style="fill:#f3ccc7; stroke:none;" d="M173 141L174 142L173 141z"/>
<path style="fill:#efb5ad; stroke:none;" d="M109 142L110 143L109 142z"/>
<path style="fill:#f3e0dd; stroke:none;" d="M288 142L288 146C288.71 144.24 288.71 143.76 288 142z"/>
<path style="fill:#f69688; stroke:none;" d="M40.3333 143.667C40.2778 143.722 40.2222 144.778 40.6667 144.333C40.7222 144.278 40.7778 143.222 40.3333 143.667z"/>
<path style="fill:#efb5ad; stroke:none;" d="M110 143L111 144L110 143M128 143L129 144L128 143M154 143L155 144L154 143z"/>
<path style="fill:#f69688; stroke:none;" d="M198 143L199 148C199.916 145.7 199.879 144.623 198 143z"/>
<path style="fill:#efb5ad; stroke:none;" d="M111 144L112 145L111 144z"/>
<path style="fill:#f69688; stroke:none;" d="M148.333 144.667C148.278 144.722 148.222 145.778 148.667 145.333C148.722 145.278 148.778 144.222 148.333 144.667M175 144L176 145L175 144z"/>
<path style="fill:#f3ccc7; stroke:none;" d="M193 144L193 149C193.924 147.352 194.449 145.825 195 144L193 144z"/>
<path style="fill:#efb5ad; stroke:none;" d="M112 145L113 146L112 145M128 145L129 146L128 145z"/>
<path style="fill:#ffffff; stroke:none;" d="M128 146C129.531 149.629 128.023 152.37 127 156C130.879 153.653 132.1 148.999 134 145C131.795 145.094 130.106 145.356 128 146M131 157C133.92 155.008 134.293 151.83 136.649 149.318C143.875 141.612 147.555 154.064 152 157C151.438 153.735 150.589 149.062 148.157 146.603C146.765 145.195 144.859 145.098 142.995 145.019C134.706 144.671 132.161 149.257 131 157M150 145C150.686 149.577 151.833 153.629 156 156C155.022 152.652 153.944 149.905 152 147L155 147C153.212 145.578 152.294 145.303 150 145z"/>
<path style="fill:#efb5ad; stroke:none;" d="M154 145L155 146L154 145M176 145L177 146L176 145M195 145L196 146L195 145z"/>
<path style="fill:#f3e0dd; stroke:none;" d="M103 146C102.99 149.455 102.802 152.632 102 156C104.667 153.67 104.193 149.388 105 146L103 146z"/>
<path style="fill:#efb5ad; stroke:none;" d="M113 146L114 147L113 146z"/>
<path style="fill:#f3e0dd; stroke:none;" d="M127 146L129 150C129.823 147.737 129.004 147.247 127 146z"/>
<path style="fill:#f3ccc7; stroke:none;" d="M155 146L153 147C154.482 147.791 155.796 147.87 155 146M177 146L178 147L177 146M196 146C196.421 148.843 196.939 150.012 199 152C198.291 149.588 197.573 147.949 196 146z"/>
<path style="fill:#f69688; stroke:none;" d="M288 146L288 153C289.059 150.466 289.059 148.534 288 146z"/>
<path style="fill:#999898; stroke:none;" d="M12 147L13 148L12 147M32 147L33 148L32 147z"/>
<path style="fill:#f3e0dd; stroke:none;" d="M39 147L39 150C39.6961 148.446 39.6961 148.554 39 147z"/>
<path style="fill:#f69688; stroke:none;" d="M104 147C103.99 150.455 103.802 153.632 103 157C105.667 154.67 105.193 150.388 106 147L104 147z"/>
<path style="fill:#999898; stroke:none;" d="M112 147L113 148L112 147z"/>
<path style="fill:#efb5ad; stroke:none;" d="M114 147L115 148L114 147z"/>
<path style="fill:#999898; stroke:none;" d="M132 147L133 148L132 147z"/>
<path style="fill:#f3ccc7; stroke:none;" d="M137 147C139.89 148.213 142.874 147.998 146 148C143.11 146.787 140.126 147.002 137 147z"/>
<path style="fill:#999898; stroke:none;" d="M152 147L153 148L152 147z"/>
<path style="fill:#efb5ad; stroke:none;" d="M211 147L210 151C211.303 149.332 211.553 149.008 211 147z"/>
<path style="fill:#999898; stroke:none;" d="M212 147L213 148L212 147M232 147L233 148L232 147M292 147L293 148L292 147M312 147L313 148L312 147M332 147L333 148L332 147M352 147L353 148L352 147z"/>
<path style="fill:#f69688; stroke:none;" d="M106 148L107 149L106 148z"/>
<path style="fill:#efb5ad; stroke:none;" d="M115 148L116 149L115 148M146 148L147 149L146 148z"/>
<path style="fill:#f69688; stroke:none;" d="M153 148L154 149L153 148M200 148L201 149L200 148z"/>
<path style="fill:#f3e0dd; stroke:none;" d="M232 148L232 151C232.696 149.446 232.696 149.554 232 148z"/>
<path style="fill:#f69688; stroke:none;" d="M107 149L108 150L107 149z"/>
<path style="fill:#efb5ad; stroke:none;" d="M116 149L117 150L116 149z"/>
<path style="fill:#f69688; stroke:none;" d="M179 149L180 150L179 149z"/>
<path style="fill:#f3ccc7; stroke:none;" d="M207 149L208 150L207 149z"/>
<path style="fill:#dc948b; stroke:none;" d="M39 150L39 155C39.8299 152.97 39.8299 152.03 39 150z"/>
<path style="fill:#f69688; stroke:none;" d="M108 150L109 151L108 150z"/>
<path style="fill:#efb5ad; stroke:none;" d="M117 150L118 151L117 150z"/>
<path style="fill:#f69688; stroke:none;" d="M135.333 150.667C135.278 150.722 135.222 151.778 135.667 151.333C135.722 151.278 135.778 150.222 135.333 150.667z"/>
<path style="fill:#f3ccc7; stroke:none;" d="M147 150L148 151L147 150z"/>
<path style="fill:#efb5ad; stroke:none;" d="M180 150L181 151L180 150z"/>
<path style="fill:#dc948b; stroke:none;" d="M202 150C203.506 150.683 204.315 150.826 206 151C204.494 150.317 203.685 150.174 202 150M222 150C223.506 150.683 224.315 150.826 226 151C224.494 150.317 223.685 150.174 222 150M233 150C234.506 150.683 235.315 150.826 237 151C235.494 150.317 234.685 150.174 233 150z"/>
<path style="fill:#f69688; stroke:none;" d="M109 151L110 152L109 151z"/>
<path style="fill:#efb5ad; stroke:none;" d="M118 151C116.521 151.986 116.797 152 115 152C116.522 152.855 118.945 153.288 118 151M128 151L129 152L128 151z"/>
<path style="fill:#f3ccc7; stroke:none;" d="M181 151L182 152L181 151z"/>
<path style="fill:#f69688; stroke:none;" d="M194 151L195 152L194 151z"/>
<path style="fill:#f3ccc7; stroke:none;" d="M199 152C202.815 154.89 206.889 153.978 211 152C207.118 151.303 203.156 152.734 199 152M213 151L214 152L213 151z"/>
<path style="fill:#efb5ad; stroke:none;" d="M222 151L223 152L222 151z"/>
<path style="fill:#f69688; stroke:none;" d="M110 152L111 153L110 152M134.333 152.667C134.278 152.722 134.222 153.778 134.667 153.333C134.722 153.278 134.778 152.222 134.333 152.667z"/>
<path style="fill:#efb5ad; stroke:none;" d="M223 152L224 153L223 152z"/>
<path style="fill:#f69688; stroke:none;" d="M111 153L112 154L111 153M127 153L128 154L127 153z"/>
<path style="fill:#f3ccc7; stroke:none;" d="M155.333 153.667C155.278 153.722 155.222 154.778 155.667 154.333C155.722 154.278 155.778 153.222 155.333 153.667z"/>
<path style="fill:#f69688; stroke:none;" d="M182 153L183 154L182 153M212 153L213 154L212 153M223.333 153.667C223.278 153.722 223.222 154.778 223.667 154.333C223.722 154.278 223.778 153.222 223.333 153.667M235 153C235.936 154.949 236.392 155.55 238 157C237.041 155.403 236.274 154.341 235 153z"/>
<path style="fill:#efb5ad; stroke:none;" d="M289 153L289 169C290.812 164.681 290.812 157.319 289 153z"/>
<path style="fill:#f69688; stroke:none;" d="M112 154L113 155L112 154z"/>
<path style="fill:#efb5ad; stroke:none;" d="M166.667 154.333C166.222 154.778 167.278 154.722 167.333 154.667C167.778 154.222 166.722 154.278 166.667 154.333M183 154L184 155L183 154z"/>
<path style="fill:#f3ccc7; stroke:none;" d="M197 154L198 155L197 154z"/>
<path style="fill:#f3e0dd; stroke:none;" d="M201 154C203.052 154.874 204.747 154.953 207 155C204.948 154.126 203.253 154.047 201 154z"/>
<path style="fill:#f69688; stroke:none;" d="M211 154L212 155L211 154z"/>
<path style="fill:#f3e0dd; stroke:none;" d="M225 154C228.163 155.327 231.586 155 235 155C231.837 153.673 228.414 154 225 154z"/>
<path style="fill:#f69688; stroke:none;" d="M39 155L39 171C40.8123 166.681 40.8123 159.319 39 155M113 155L114 156L113 155M126 155L126 157L128 157C127.455 155.365 127.635 155.545 126 155z"/>
<path style="fill:#efb5ad; stroke:none;" d="M129.667 155.333C129.222 155.778 130.278 155.722 130.333 155.667C130.778 155.222 129.722 155.278 129.667 155.333z"/>
<path style="fill:#f69688; stroke:none;" d="M133.333 155.667C133.278 155.722 133.222 156.778 133.667 156.333C133.722 156.278 133.778 155.222 133.333 155.667z"/>
<path style="fill:#efb5ad; stroke:none;" d="M149 155L150 156L149 155z"/>
<path style="fill:#f69688; stroke:none;" d="M152.667 155.333C152.222 155.778 153.278 155.722 153.333 155.667C153.778 155.222 152.722 155.278 152.667 155.333M156 155L155 157L157 157C157 155.147 157.3 155.65 156 155M198 155L199 156L198 155z"/>
<path style="fill:#efb5ad; stroke:none;" d="M209 155L210 156L209 155z"/>
<path style="fill:#ffffff; stroke:none;" d="M222 156C226.471 157.876 232.183 157 237 157C232.948 153.93 226.7 154.611 222 156z"/>
<path style="fill:#f69688; stroke:none;" d="M169 156L170 157L169 156z"/>
<path style="fill:#efb5ad; stroke:none;" d="M200.667 156.333C200.222 156.778 201.278 156.722 201.333 156.667C201.778 156.222 200.722 156.278 200.667 156.333z"/>
<path style="fill:#f69688; stroke:none;" d="M207.667 156.333C207.222 156.778 208.278 156.722 208.333 156.667C208.778 156.222 207.722 156.278 207.667 156.333z"/>
<path style="fill:#f3e0dd; stroke:none;" d="M131.667 157.333C131.222 157.778 132.278 157.722 132.333 157.667C132.778 157.222 131.722 157.278 131.667 157.333z"/>
<path style="fill:#efb5ad; stroke:none;" d="M150.667 157.333C150.222 157.778 151.278 157.722 151.333 157.667C151.778 157.222 150.722 157.278 150.667 157.333z"/>
<path style="fill:#f69688; stroke:none;" d="M131.667 158.333C131.222 158.778 132.278 158.722 132.333 158.667C132.778 158.222 131.722 158.278 131.667 158.333M150.667 158.333C150.222 158.778 151.278 158.722 151.333 158.667C151.778 158.222 150.722 158.278 150.667 158.333z"/>
<path style="fill:#999898; stroke:none;" d="M12 167L13 168L12 167M32 167L33 168L32 167M292 167L293 168L292 167M312 167L313 168L312 167M332 167L333 168L332 167M352 167L353 168L352 167z"/>
<path style="fill:#f69688; stroke:none;" d="M155 206C156.661 202.041 156 197.26 156 193L156 169L177 169C174.39 167.905 171.838 168.004 169 168C165.675 167.995 159.381 166.828 156.603 169.028C154.082 171.025 155 176.197 155 179L155 206z"/>
<path style="fill:#efb5ad; stroke:none;" d="M103.667 169.333C103.222 169.778 104.278 169.722 104.333 169.667C104.778 169.222 103.722 169.278 103.667 169.333z"/>
<path style="fill:#f3e0dd; stroke:none;" d="M105 169C106.769 169.779 108.036 169.912 110 170C108.231 169.221 106.964 169.088 105 169z"/>
<path style="fill:#f69688; stroke:none;" d="M110.667 169.333C110.222 169.778 111.278 169.722 111.333 169.667C111.778 169.222 110.722 169.278 110.667 169.333M126 169L126 197C129.477 188.713 125.889 177.866 128 169L126 169z"/>
<path style="fill:#efb5ad; stroke:none;" d="M132 169L133 170L132 169z"/>
<path style="fill:#f69688; stroke:none;" d="M133 169L133 197C135.604 190.793 135.604 175.207 133 169z"/>
<path style="fill:#f3ccc7; stroke:none;" d="M142 169L142 196C144.315 190.482 142.906 182.939 143.014 177C143.069 173.988 143.507 171.607 142 169z"/>
<path style="fill:#dc948b; stroke:none;" d="M147 169C149.125 177.926 148 187.862 148 197C150.392 191.3 149.012 183.147 149 177C148.994 173.894 149.407 171.103 147 169z"/>
<path style="fill:#f3e0dd; stroke:none;" d="M156 169L156 206L176 206C170.531 203.705 162.901 205 157 205L157 170L175 170C169.563 171.607 163.642 171 158 171C162.673 172.961 173.026 173.588 176 169L156 169z"/>
<path style="fill:#efb5ad; stroke:none;" d="M176 169L177 170L176 169M189.667 169.333C189.222 169.778 190.278 169.722 190.333 169.667C190.778 169.222 189.722 169.278 189.667 169.333z"/>
<path style="fill:#f3e0dd; stroke:none;" d="M191 169C192.769 169.779 194.036 169.912 196 170C194.231 169.221 192.964 169.088 191 169z"/>
<path style="fill:#f69688; stroke:none;" d="M196.667 169.333C196.222 169.778 197.278 169.722 197.333 169.667C197.778 169.222 196.722 169.278 196.667 169.333z"/>
<path style="fill:#f3e0dd; stroke:none;" d="M213 169C217.451 173.545 225.03 172 231 172C226.276 170.018 220.09 171 215 171C220.694 169.317 227.246 169.63 233 171C229.387 166.865 218.249 169 213 169z"/>
<path style="fill:#efb5ad; stroke:none;" d="M233 169L234 170L233 169z"/>
<path style="fill:#f69688; stroke:none;" d="M101 170L102 171L101 170z"/>
<path style="fill:#ffffff; stroke:none;" d="M118 209C115.622 200.633 108.559 204.332 102 202C105.061 201.822 109.056 202.574 111.566 200.397C115.787 196.735 114.273 186.034 113.956 181.001C113.832 179.034 113.588 176.997 112.258 175.434C106.963 169.214 100.408 176.189 100.044 182C99.8781 184.65 99.9869 187.346 100.001 190C100.022 193.988 100.638 197.262 102 201C97.5306 195.401 96.2458 185.895 98.8935 179.001C100.731 174.215 105.904 169.748 110.956 172.909C123.374 180.679 107.238 201.839 122 206C117.775 199.514 118 194.559 118 187C118 182.469 118.825 176.897 115.566 173.228C111.083 168.181 101.422 168.918 98.3179 175.019C95.4543 180.648 95.7637 194.178 98.1481 199.96C101.407 207.863 111.635 205.127 118 209z"/>
<path style="fill:#f3ccc7; stroke:none;" d="M112 170L113 171L112 170z"/>
<path style="fill:#ffffff; stroke:none;" d="M127 170C127 178.749 124.557 191.945 128.434 199.981C131.635 206.618 141.633 208.12 145.991 201.811C148.371 198.365 147.998 193.977 148 190L148 170C144.297 178.826 150.305 190.418 144.91 198.892C140.509 205.805 131.494 203.493 129.434 195.999C127.247 188.049 132.166 176.819 127 170z"/>
<path style="fill:#efb5ad; stroke:none;" d="M128 170L129 171L128 170z"/>
<path style="fill:#ffffff; stroke:none;" d="M131 170L131 191C131.006 193.845 130.631 197.342 132.603 199.682C135.725 203.385 142.254 202.198 144.106 197.891C147.221 190.649 145 178.799 145 171L143 171C143 178.066 144.042 186.043 142.772 193C142.294 195.616 140.383 199.866 137.043 199.369C134.107 198.932 133.292 195.421 133.048 193.004C132.284 185.455 133 177.584 133 170L131 170z"/>
<path style="fill:#f69688; stroke:none;" d="M146 170L147 171L146 170z"/>
<path style="fill:#ffffff; stroke:none;" d="M157 170L157 205L175 205C170.026 202.913 163.362 204 158 204L158 171L175 171C169.778 168.809 162.632 170 157 170M189 194C185.993 201.774 197.83 205.085 200.377 197.941C201.227 195.559 200.337 193.062 198.682 191.275C195.022 187.322 188.662 186.78 186.786 180.996C184.179 172.959 193.805 170.321 199 174C197.338 173.609 195.71 173.13 193.98 173.199C188.877 173.402 185.792 178.415 188.757 182.892C191.361 186.824 196.645 187.637 199.768 191.108C200.981 192.456 202.133 194.108 202.133 195.999C202.133 200.993 195.393 204.864 191.044 202.781C187.527 201.096 186.359 197.337 185 194C180.994 203.848 195.171 209.878 201.682 202.772C205.712 198.373 204.33 191.013 199.941 187.498C197.11 185.231 192.612 184.354 190.832 180.91C189.355 178.053 191.953 175.36 194.924 175.966C197.177 176.426 199.213 178.672 201 180C200.536 177.828 199.895 176.042 199 174C201.02 175.896 201.995 177.415 203 180C206.4 170.388 190.768 166.28 185.742 173.148C181.722 178.642 184.817 185.845 190.005 189.081C192.591 190.694 196.69 191.617 197.539 195.039C198.192 197.673 195.709 200.15 193.093 199.366C190.595 198.616 189.769 196.156 189 194z"/>
<path style="fill:#efb5ad; stroke:none;" d="M199 170L200 171L199 170z"/>
<path style="fill:#ffffff; stroke:none;" d="M215 170C219.974 172.087 226.638 171 232 171C227.026 168.913 220.362 170 215 170z"/>
<path style="fill:#dc948b; stroke:none;" d="M288 170L288 176C288.951 173.715 288.951 172.285 288 170z"/>
<path style="fill:#efb5ad; stroke:none;" d="M39 171L39 174C39.6961 172.446 39.6961 172.554 39 171M100 171L101 172L100 171z"/>
<path style="fill:#f3e0dd; stroke:none;" d="M105 171C106.769 171.779 108.036 171.912 110 172C108.231 171.221 106.964 171.088 105 171z"/>
<path style="fill:#f69688; stroke:none;" d="M114 171L115 172L114 171z"/>
<path style="fill:#f3e0dd; stroke:none;" d="M129 171C129 178.767 126.464 191.991 130.179 198.956C134.152 206.404 143.509 203.932 146 197C143.711 198.471 141.787 200.984 138.981 201.508C135.262 202.204 132.199 199.443 131.318 195.995C129.399 188.483 131 178.746 131 171L129 171z"/>
<path style="fill:#f3ccc7; stroke:none;" d="M145 171L145 197C148.24 189.279 145.033 179.263 147 171L145 171z"/>
<path style="fill:#f69688; stroke:none;" d="M186 171L187 172L186 171z"/>
<path style="fill:#f3e0dd; stroke:none;" d="M191 171C193.052 171.874 194.747 171.953 197 172C194.948 171.126 193.253 171.047 191 171z"/>
<path style="fill:#f69688; stroke:none;" d="M201 171L202 172L201 171M231 171C231.613 172.661 232.043 173.483 233 175L226 175C228.613 176.098 231.164 175.993 234 176C233.199 173.896 232.503 172.663 231 171z"/>
<path style="fill:#efb5ad; stroke:none;" d="M99 172L100 173L99 172z"/>
<path style="fill:#f3ccc7; stroke:none;" d="M102 201C99.1564 190.252 98.8419 181.479 105 172C97.0463 175.834 95.8636 194.991 102 201z"/>
<path style="fill:#dc948b; stroke:none;" d="M105 172C106.506 172.683 107.315 172.826 109 173C107.494 172.317 106.685 172.174 105 172z"/>
<path style="fill:#f3ccc7; stroke:none;" d="M109 172C114.835 179.314 118.403 196.868 108 202L119 206C117.718 204.064 115.741 201.963 115.46 199.574C114.38 190.397 120.715 176.081 109 172z"/>
<path style="fill:#f69688; stroke:none;" d="M115 172L116 173L115 172z"/>
<path style="fill:#f3e0dd; stroke:none;" d="M146 172L146 196C148.349 190.403 148.349 177.597 146 172z"/>
<path style="fill:#efb5ad; stroke:none;" d="M158 172L158 203C159.876 198.529 159 192.817 159 188C163.761 188 168.345 187.892 173 189C169.113 186.056 163.716 187 159 187L159 173L175 173C170.026 170.913 163.362 172 158 172z"/>
<path style="fill:#f3ccc7; stroke:none;" d="M202 194C198.301 186.259 180.998 182.709 192 173C186.695 172.268 185.001 178.851 187.18 182.946C189.725 187.729 197.584 191.018 202 194z"/>
<path style="fill:#efb5ad; stroke:none;" d="M192 172C193.506 172.683 194.315 172.826 196 173C194.494 172.317 193.685 172.174 192 172z"/>
<path style="fill:#f3ccc7; stroke:none;" d="M196 172C197.223 173.195 197.42 173.316 199 174C197.777 172.805 197.58 172.684 196 172z"/>
<path style="fill:#f69688; stroke:none;" d="M202 172L203 173L202 172z"/>
<path style="fill:#efb5ad; stroke:none;" d="M215 172C219.724 173.982 225.91 173 231 173C226.276 171.018 220.09 172 215 172z"/>
<path style="fill:#f69688; stroke:none;" d="M98 173L99 174L98 173z"/>
<path style="fill:#f3e0dd; stroke:none;" d="M159 173L159 187C164.345 187 170.026 188.058 174 184L162 184L162 175C166.257 175 173.029 176.4 176 173C172.34 173.871 165.517 172.72 162.603 175.028C160.121 176.994 160.413 182.966 163.318 184.397C165.739 185.589 169.378 185 172 185C168.04 186.171 164.113 186 160 186C160 181.737 160.661 176.959 159 173z"/>
<path style="fill:#ffffff; stroke:none;" d="M160 173L160 186L172 186C169.311 184.871 165.763 185.607 163.318 183.972C160.438 182.047 160.436 176.952 163.318 175.028C166.288 173.045 171.593 174 175 174C170.529 172.124 164.817 173 160 173z"/>
<path style="fill:#f3e0dd; stroke:none;" d="M213 174C215.332 174.985 217.457 174.981 220 175L220 206C223.159 200.536 221.013 189.384 221 183C220.995 180.73 221.449 177.524 219.972 175.59C218.321 173.427 215.33 173.771 213 174z"/>
<path style="fill:#ffffff; stroke:none;" d="M215 173C216.713 173.917 218.884 174.59 219.977 176.315C221.505 178.728 220.999 182.284 221 185L221 204L223 204L223 173L215 173z"/>
<path style="fill:#f3ccc7; stroke:none;" d="M223 173L223 204C225.497 198.049 224 189.42 224 183C224 179.581 224.328 176.166 223 173z"/>
<path style="fill:#ffffff; stroke:none;" d="M224 173C224 183.084 222.136 195.312 225 205C228.511 196.633 226 183.076 226 174L232 174C229.387 172.902 226.836 173.007 224 173z"/>
<path style="fill:#f3e0dd; stroke:none;" d="M39 174L39 179C39.8299 176.97 39.8299 176.03 39 174z"/>
<path style="fill:#f69688; stroke:none;" d="M176 174C171.442 175.347 166.73 175 162 175C164.23 176.285 177.325 177.208 176 174z"/>
<path style="fill:#efb5ad; stroke:none;" d="M184 174L185 175L184 174z"/>
<path style="fill:#f3ccc7; stroke:none;" d="M199 174L202 180C202.698 177.03 201.511 175.579 199 174z"/>
<path style="fill:#f3e0dd; stroke:none;" d="M203.333 174.667C203.278 174.722 203.222 175.778 203.667 175.333C203.722 175.278 203.778 174.222 203.333 174.667M226 174C228.332 174.985 230.457 174.981 233 175C230.668 174.015 228.543 174.019 226 174z"/>
<path style="fill:#f3ccc7; stroke:none;" d="M97.3333 175.667C97.2778 175.722 97.2222 176.778 97.6667 176.333C97.7223 176.278 97.7777 175.222 97.3333 175.667z"/>
<path style="fill:#f69688; stroke:none;" d="M105 175C106.941 175.951 108.898 176.439 111 177C108.943 175.418 107.612 175.174 105 175M117 175L118 176L117 175M192 175C193.506 175.683 194.315 175.826 196 176C194.494 175.317 193.685 175.174 192 175z"/>
<path style="fill:#efb5ad; stroke:none;" d="M204.333 175.667C204.278 175.722 204.222 176.778 204.667 176.333C204.722 176.278 204.778 175.222 204.333 175.667z"/>
<path style="fill:#f69688; stroke:none;" d="M213 175C215.332 175.985 217.457 175.981 220 176C217.668 175.015 215.543 175.019 213 175z"/>
<path style="fill:#f15743; stroke:none;" d="M104.742 177.032C101.398 179.645 102.328 192.26 103.434 195.941C104.3 198.825 107.044 200.49 109.686 198.377C113.382 195.422 112.829 184.237 111.682 180.059C110.908 177.24 107.462 174.907 104.742 177.032z"/>
<path style="fill:#f3ccc7; stroke:none;" d="M183 176L183 182C183.951 179.715 183.951 178.285 183 176M190 176L191 177L190 176z"/>
<path style="fill:#efb5ad; stroke:none;" d="M197 176L198 177L197 176z"/>
<path style="fill:#dc948b; stroke:none;" d="M226 176C226 185.753 227.267 196.477 225 206C227.407 203.897 226.994 201.106 227 198C227.013 191.322 228.596 182.186 226 176z"/>
<path style="fill:#efb5ad; stroke:none;" d="M288.333 176.667C288.278 176.722 288.222 177.778 288.667 177.333C288.722 177.278 288.778 176.222 288.333 176.667z"/>
<path style="fill:#f69688; stroke:none;" d="M40.3333 177.667C40.2778 177.722 40.2222 178.778 40.6667 178.333C40.7222 178.278 40.7778 177.222 40.3333 177.667z"/>
<path style="fill:#dc948b; stroke:none;" d="M96 177L96 197C98.0866 192.027 98.0866 181.973 96 177z"/>
<path style="fill:#f69688; stroke:none;" d="M103 177L104 178L103 177z"/>
<path style="fill:#efb5ad; stroke:none;" d="M111 177L112 178L111 177z"/>
<path style="fill:#f69688; stroke:none;" d="M118 177L118 197C120.087 192.027 120.087 181.973 118 177z"/>
<path style="fill:#f3e0dd; stroke:none;" d="M204 177C203.806 178.857 203.79 180.153 204 182C204.83 179.969 204.83 179.03 204 177z"/>
<path style="fill:#f3ccc7; stroke:none;" d="M102 178L102 197C104.02 192.187 104.02 182.813 102 178z"/>
<path style="fill:#efb5ad; stroke:none;" d="M189 178L189 181C189.696 179.446 189.696 179.554 189 178z"/>
<path style="fill:#dc948b; stroke:none;" d="M198 178C198.168 180.403 198.197 181.46 200 183C199.449 181.175 198.924 179.648 198 178z"/>
<path style="fill:#efb5ad; stroke:none;" d="M201.333 178.667C201.278 178.722 201.222 179.778 201.667 179.333C201.722 179.278 201.778 178.222 201.333 178.667M40 179L40 182C40.6961 180.446 40.6961 180.554 40 179z"/>
<path style="fill:#f3e0dd; stroke:none;" d="M98 179L98 197C99.9516 192.349 99.9516 183.651 98 179z"/>
<path style="fill:#f3ccc7; stroke:none;" d="M112 179L112 187C113.161 184.23 113.161 181.77 112 179z"/>
<path style="fill:#f3e0dd; stroke:none;" d="M199 179L199 182L201 181C200.455 179.365 200.635 179.545 199 179z"/>
<path style="fill:#f69688; stroke:none;" d="M201.667 180.333C201.222 180.778 202.278 180.722 202.333 180.667C202.778 180.222 201.722 180.278 201.667 180.333M190 181L191 182L190 181M203 181L204 182L203 181M287.333 181.667C287.278 181.722 287.222 182.778 287.667 182.333C287.722 182.278 287.778 181.222 287.333 181.667M41 182L41 186C41.7102 184.241 41.7102 183.759 41 182M191 182L192 183L191 182M192 183L193 184L192 183z"/>
<path style="fill:#efb5ad; stroke:none;" d="M287.333 183.667C287.278 183.722 287.222 184.778 287.667 184.333C287.722 184.278 287.778 183.222 287.333 183.667z"/>
<path style="fill:#f69688; stroke:none;" d="M194.667 184.333C194.222 184.778 195.278 184.722 195.333 184.667C195.778 184.222 194.722 184.278 194.667 184.333z"/>
<path style="fill:#efb5ad; stroke:none;" d="M185 185L186 186L185 185z"/>
<path style="fill:#f69688; stroke:none;" d="M196.667 185.333C196.222 185.778 197.278 185.722 197.333 185.667C197.778 185.222 196.722 185.278 196.667 185.333M286 185L286 188C286.696 186.446 286.696 186.554 286 185z"/>
<path style="fill:#f3e0dd; stroke:none;" d="M287 185L287 188C287.696 186.446 287.696 186.554 287 185z"/>
<path style="fill:#efb5ad; stroke:none;" d="M41 186L41 189C41.6961 187.446 41.6961 187.554 41 186M186 186L187 187L186 186z"/>
<path style="fill:#f69688; stroke:none;" d="M199 186L200 187L199 186z"/>
<path style="fill:#999898; stroke:none;" d="M12 187L13 188L12 187M32 187L33 188L32 187M112 187L113 188L112 187M132 187L133 188L132 187z"/>
<path style="fill:#efb5ad; stroke:none;" d="M187 187L188 188L187 187z"/>
<path style="fill:#999898; stroke:none;" d="M192 187L193 188L192 187z"/>
<path style="fill:#efb5ad; stroke:none;" d="M200 187L201 188L200 187z"/>
<path style="fill:#999898; stroke:none;" d="M292 187L293 188L292 187M312 187L313 188L312 187M332 187L333 188L332 187M352 187L353 188L352 187z"/>
<path style="fill:#f3ccc7; stroke:none;" d="M112 188L112 196C113.161 193.23 113.161 190.77 112 188z"/>
<path style="fill:#f3e0dd; stroke:none;" d="M159 188L159 202C160.667 198.028 160.667 191.972 159 188z"/>
<path style="fill:#ffffff; stroke:none;" d="M160 188L160 202L175 202C171.409 200.493 166.58 202.149 163.318 199.972C160.279 197.944 160.28 192.056 163.318 190.028C165.663 188.462 169.327 189.002 172 189C168.303 187.448 163.983 188 160 188z"/>
<path style="fill:#f69688; stroke:none;" d="M188 188L189 189L188 188z"/>
<path style="fill:#f3ccc7; stroke:none;" d="M201 188L202 189L201 188z"/>
<path style="fill:#efb5ad; stroke:none;" d="M286 188L286 191C286.696 189.446 286.696 189.554 286 188z"/>
<path style="fill:#f69688; stroke:none;" d="M42 189L42 192C42.6961 190.446 42.6961 190.554 42 189z"/>
<path style="fill:#f3e0dd; stroke:none;" d="M161 200C162.327 196.837 162 193.414 162 190L173 190C170.047 188.761 163.39 187.69 161.603 191.318C160.411 193.739 161 197.378 161 200z"/>
<path style="fill:#dc948b; stroke:none;" d="M173 189C169.343 190.081 165.801 190 162 190C163.957 191.128 174.371 192.322 173 189z"/>
<path style="fill:#efb5ad; stroke:none;" d="M202 189L203 190L202 189z"/>
<path style="fill:#f3ccc7; stroke:none;" d="M192.667 190.333C192.222 190.778 193.278 190.722 193.333 190.667C193.778 190.222 192.722 190.278 192.667 190.333z"/>
<path style="fill:#f69688; stroke:none;" d="M203 190L204 191L203 190z"/>
<path style="fill:#efb5ad; stroke:none;" d="M195 191L196 192L195 191z"/>
<path style="fill:#f69688; stroke:none;" d="M285 191L285 194C285.696 192.446 285.696 192.554 285 191M196 192L197 193L196 192z"/>
<path style="fill:#efb5ad; stroke:none;" d="M204.333 192.667C204.278 192.722 204.222 193.778 204.667 193.333C204.722 193.278 204.778 192.222 204.333 192.667z"/>
<path style="fill:#f3ccc7; stroke:none;" d="M183 193L183 198C183.83 195.969 183.83 195.03 183 193z"/>
<path style="fill:#efb5ad; stroke:none;" d="M188 193L189 197C189.751 194.954 189.656 194.404 188 193z"/>
<path style="fill:#f3ccc7; stroke:none;" d="M43.3333 194.667C43.2778 194.722 43.2222 195.778 43.6667 195.333C43.7222 195.278 43.7778 194.222 43.3333 194.667z"/>
<path style="fill:#efb5ad; stroke:none;" d="M187 194L188 195L187 194z"/>
<path style="fill:#dc948b; stroke:none;" d="M198 194L198 197C198.696 195.446 198.696 195.554 198 194z"/>
<path style="fill:#efb5ad; stroke:none;" d="M201 194L201 198C201.71 196.241 201.71 195.759 201 194z"/>
<path style="fill:#f3e0dd; stroke:none;" d="M202 194L202 198C202.71 196.24 202.71 195.759 202 194M204 194L204 198C204.71 196.24 204.71 195.759 204 194z"/>
<path style="fill:#f3ccc7; stroke:none;" d="M186 195C187.063 204.52 197.615 206.773 202 198C196.124 201.695 189.796 203.685 188 195L186 195M284.333 196.667C284.278 196.722 284.222 197.778 284.667 197.333C284.722 197.278 284.778 196.222 284.333 196.667z"/>
<path style="fill:#efb5ad; stroke:none;" d="M44.3333 197.667C44.2778 197.722 44.2222 198.778 44.6667 198.333C44.7222 198.278 44.7778 197.222 44.3333 197.667z"/>
<path style="fill:#f69688; stroke:none;" d="M103 197L104 198L103 197z"/>
<path style="fill:#efb5ad; stroke:none;" d="M111 197L112 198L111 197z"/>
<path style="fill:#f3e0dd; stroke:none;" d="M127.333 197.667C127.278 197.722 127.222 198.778 127.667 198.333C127.722 198.278 127.778 197.222 127.333 197.667z"/>
<path style="fill:#efb5ad; stroke:none;" d="M133 197L134 198L133 197z"/>
<path style="fill:#f69688; stroke:none;" d="M141 197L142 198L141 197M148.333 197.667C148.278 197.722 148.222 198.778 148.667 198.333C148.722 198.278 148.778 197.222 148.333 197.667z"/>
<path style="fill:#efb5ad; stroke:none;" d="M97.3333 198.667C97.2778 198.722 97.2222 199.778 97.6667 199.333C97.7223 199.278 97.7777 198.222 97.3333 198.667z"/>
<path style="fill:#f69688; stroke:none;" d="M110 198L111 199L110 198M134 198L135 199L134 198z"/>
<path style="fill:#f3ccc7; stroke:none;" d="M190 198L191 199L190 198z"/>
<path style="fill:#f69688; stroke:none;" d="M197 198L198 199L197 198M204.333 198.667C204.278 198.722 204.222 199.778 204.667 199.333C204.722 199.278 204.778 198.222 204.333 198.667M283.333 198.667C283.278 198.722 283.222 199.778 283.667 199.333C283.722 199.278 283.778 198.222 283.333 198.667z"/>
<path style="fill:#efb5ad; stroke:none;" d="M109 199L110 200L109 199z"/>
<path style="fill:#f69688; stroke:none;" d="M117.333 199.667C117.278 199.722 117.222 200.778 117.667 200.333C117.722 200.278 117.778 199.222 117.333 199.667M127 199L128 200L127 199z"/>
<path style="fill:#efb5ad; stroke:none;" d="M135 199L136 200L135 199z"/>
<path style="fill:#f3ccc7; stroke:none;" d="M147 199L148 200L147 199z"/>
<path style="fill:#efb5ad; stroke:none;" d="M196 199L197 200L196 199z"/>
<path style="fill:#f3ccc7; stroke:none;" d="M106 200C107.248 200.685 107.548 200.749 109 201C107.752 200.315 107.452 200.251 106 200z"/>
<path style="fill:#f3e0dd; stroke:none;" d="M136 200C137.248 200.685 137.548 200.749 139 201C137.752 200.315 137.452 200.251 136 200M162 200C166.248 201.783 172.444 201.501 177 201C172.529 199.124 166.817 200 162 200z"/>
<path style="fill:#dc948b; stroke:none;" d="M184 200L185 201L184 200z"/>
<path style="fill:#f3ccc7; stroke:none;" d="M193 200C194.248 200.685 194.548 200.749 196 201C194.752 200.315 194.452 200.251 193 200M45.3333 201.667C45.2777 201.722 45.2222 202.778 45.6667 202.333C45.7222 202.278 45.7778 201.222 45.3333 201.667z"/>
<path style="fill:#efb5ad; stroke:none;" d="M98 201L99 202L98 201z"/>
<path style="fill:#f3ccc7; stroke:none;" d="M102 201C103.543 202.267 104.048 202.489 106 203C104.542 201.919 103.752 201.564 102 201z"/>
<path style="fill:#f69688; stroke:none;" d="M118 201L119 202L118 201z"/>
<path style="fill:#efb5ad; stroke:none;" d="M146 201L147 202L146 201z"/>
<path style="fill:#f69688; stroke:none;" d="M203 201L204 202L203 201z"/>
<path style="fill:#f3e0dd; stroke:none;" d="M105 203C106.769 203.779 108.036 203.912 110 204C108.014 202.699 107.372 202.67 105 203z"/>
<path style="fill:#f69688; stroke:none;" d="M119 202L120 203L119 202z"/>
<path style="fill:#efb5ad; stroke:none;" d="M129 202L130 203L129 202z"/>
<path style="fill:#f3ccc7; stroke:none;" d="M158 203C162.724 204.982 168.91 204 174 204L174 202C168.66 202 163.146 201.479 158 203z"/>
<path style="fill:#efb5ad; stroke:none;" d="M174.333 202.667C174.278 202.722 174.222 203.778 174.667 203.333C174.722 203.278 174.778 202.222 174.333 202.667M202 202L203 203L202 202M282.333 202.667C282.278 202.722 282.222 203.778 282.667 203.333C282.722 203.278 282.778 202.222 282.333 202.667M46 203L46 206C46.6961 204.446 46.6961 204.554 46 203z"/>
<path style="fill:#f69688; stroke:none;" d="M120 203L121 204L120 203z"/>
<path style="fill:#efb5ad; stroke:none;" d="M130 203L131 204L130 203M201 203L202 204L201 203M101 204L102 205L101 204z"/>
<path style="fill:#dc948b; stroke:none;" d="M131 204L132 205L131 204z"/>
<path style="fill:#f3ccc7; stroke:none;" d="M143 204L144 205L143 204z"/>
<path style="fill:#efb5ad; stroke:none;" d="M175 204L176 205L175 204z"/>
<path style="fill:#f69688; stroke:none;" d="M200 204L201 205L200 204M224 204L225 205L224 204M281 204L281 207C281.696 205.446 281.696 205.554 281 204z"/>
<path style="fill:#efb5ad; stroke:none;" d="M111 205L112 206L111 205M113 205L114 206L113 205z"/>
<path style="fill:#dc948b; stroke:none;" d="M122 205C120.521 205.986 120.797 206 119 206C120.522 206.855 122.945 207.288 122 205z"/>
<path style="fill:#f3ccc7; stroke:none;" d="M133.667 205.333C133.222 205.778 134.278 205.722 134.333 205.667C134.778 205.222 133.722 205.278 133.667 205.333z"/>
<path style="fill:#dc948b; stroke:none;" d="M176 205C169.699 206.862 162.542 206 156 206C159.99 208.299 167.325 207.055 172 207C173.998 206.977 176.953 207.309 176 205z"/>
<path style="fill:#f69688; stroke:none;" d="M189 205L190 206L189 205z"/>
<path style="fill:#efb5ad; stroke:none;" d="M198 205L199 206L198 205z"/>
<path style="fill:#f69688; stroke:none;" d="M104 206C106.052 206.874 107.747 206.953 110 207C107.948 206.126 106.253 206.047 104 206z"/>
<path style="fill:#efb5ad; stroke:none;" d="M114 206L115 207L114 206M118 206L117 210C118.656 208.596 118.751 208.046 118 206z"/>
<path style="fill:#f69688; stroke:none;" d="M135 206C136.769 206.779 138.036 206.912 140 207C138.231 206.221 136.964 206.088 135 206M191 206C193.052 206.874 194.747 206.953 197 207C194.948 206.126 193.253 206.047 191 206z"/>
<path style="fill:#999898; stroke:none;" d="M12 207L13 208L12 207M32 207L33 208L32 207z"/>
<path style="fill:#efb5ad; stroke:none;" d="M47 207L48 208L47 207M115 207L116 208L115 207z"/>
<path style="fill:#999898; stroke:none;" d="M292 207L293 208L292 207M312 207L313 208L312 207M332 207L333 208L332 207M352 207L353 208L352 207z"/>
<path style="fill:#efb5ad; stroke:none;" d="M116 208L117 209L116 208M280 208L281 209L280 208z"/>
<path style="fill:#f69688; stroke:none;" d="M48 209L49 210L48 209M279 210L280 211L279 210M49 211L50 212L49 211z"/>
<path style="fill:#dc948b; stroke:none;" d="M278 212L279 213L278 212z"/>
<path style="fill:#f69688; stroke:none;" d="M50 213L51 214L50 213z"/>
<path style="fill:#f3e0dd; stroke:none;" d="M50.3333 214.667C50.2778 214.722 50.2222 215.778 50.6667 215.333C50.7222 215.278 50.7778 214.222 50.3333 214.667M277.333 215.667C277.278 215.722 277.222 216.778 277.667 216.333C277.722 216.278 277.778 215.222 277.333 215.667z"/>
<path style="fill:#efb5ad; stroke:none;" d="M51 216L52 217L51 216M276 217L277 218L276 217M52 218L53 219L52 218M275 219L276 220L275 219M53 220L54 221L53 220M274 221L275 222L274 221M54 222L55 223L54 222z"/>
<path style="fill:#f69688; stroke:none;" d="M55 223L56 224L55 223M272 224L273 225L272 224M56 225L57 226L56 225z"/>
<path style="fill:#efb5ad; stroke:none;" d="M271 226L272 227L271 226z"/>
<path style="fill:#999898; stroke:none;" d="M12 227L13 228L12 227M32 227L33 228L32 227M52 227L53 228L52 227z"/>
<path style="fill:#efb5ad; stroke:none;" d="M57 227L58 228L57 227z"/>
<path style="fill:#999898; stroke:none;" d="M272 227L273 228L272 227M292 227L293 228L292 227M312 227L313 228L312 227M332 227L333 228L332 227M352 227L353 228L352 227z"/>
<path style="fill:#f3ccc7; stroke:none;" d="M270 228L271 229L270 228z"/>
<path style="fill:#f69688; stroke:none;" d="M269 229L270 230L269 229M59 230L60 231L59 230z"/>
<path style="fill:#efb5ad; stroke:none;" d="M268 231L269 232L268 231z"/>
<path style="fill:#f69688; stroke:none;" d="M267 232L268 233L267 232z"/>
<path style="fill:#efb5ad; stroke:none;" d="M61 233L62 234L61 233z"/>
<path style="fill:#f69688; stroke:none;" d="M62 234L63 235L62 234z"/>
<path style="fill:#f3ccc7; stroke:none;" d="M266 234L267 235L266 234z"/>
<path style="fill:#f69688; stroke:none;" d="M265 235L266 236L265 235z"/>
<path style="fill:#efb5ad; stroke:none;" d="M63 236L64 237L63 236z"/>
<path style="fill:#f69688; stroke:none;" d="M64 237L65 238L64 237M65 238L66 239L65 238z"/>
<path style="fill:#f3ccc7; stroke:none;" d="M263 238L264 239L263 238z"/>
<path style="fill:#efb5ad; stroke:none;" d="M262 239L263 240L262 239z"/>
<path style="fill:#f69688; stroke:none;" d="M261 240L262 241L261 240z"/>
<path style="fill:#efb5ad; stroke:none;" d="M67 241L68 242L67 241z"/>
<path style="fill:#f69688; stroke:none;" d="M68 242L69 243L68 242M69 243L70 244L69 243z"/>
<path style="fill:#f3ccc7; stroke:none;" d="M259 243L260 244L259 243z"/>
<path style="fill:#efb5ad; stroke:none;" d="M258 244L259 245L258 244M257 245L258 246L257 245z"/>
<path style="fill:#f69688; stroke:none;" d="M256 246L257 247L256 246z"/>
<path style="fill:#999898; stroke:none;" d="M12 247L13 248L12 247M32 247L33 248L32 247M52 247L53 248L52 247z"/>
<path style="fill:#f69688; stroke:none;" d="M255 247L256 248L255 247z"/>
<path style="fill:#999898; stroke:none;" d="M272 247L273 248L272 247M292 247L293 248L292 247M312 247L313 248L312 247M332 247L333 248L332 247M352 247L353 248L352 247z"/>
<path style="fill:#f3ccc7; stroke:none;" d="M73 248L74 249L73 248z"/>
<path style="fill:#f69688; stroke:none;" d="M254 248L255 249L254 248z"/>
<path style="fill:#f3ccc7; stroke:none;" d="M74 249L75 250L74 249z"/>
<path style="fill:#f69688; stroke:none;" d="M253 249L254 250L253 249z"/>
<path style="fill:#f3ccc7; stroke:none;" d="M75 250L76 251L75 250z"/>
<path style="fill:#f69688; stroke:none;" d="M252 250L253 251L252 250z"/>
<path style="fill:#f3ccc7; stroke:none;" d="M76 251L77 252L76 251z"/>
<path style="fill:#f69688; stroke:none;" d="M251 251L252 252L251 251z"/>
<path style="fill:#f3ccc7; stroke:none;" d="M77 252L78 253L77 252z"/>
<path style="fill:#f69688; stroke:none;" d="M250 252L251 253L250 252z"/>
<path style="fill:#f3ccc7; stroke:none;" d="M78 253L79 254L78 253z"/>
<path style="fill:#f69688; stroke:none;" d="M249 253L250 254L249 253M248 254L249 255L248 254z"/>
<path style="fill:#efb5ad; stroke:none;" d="M247 255L248 256L247 255z"/>
<path style="fill:#f69688; stroke:none;" d="M82 256L83 257L82 256z"/>
<path style="fill:#f3ccc7; stroke:none;" d="M246 256L247 257L246 256z"/>
<path style="fill:#f69688; stroke:none;" d="M83 257L84 258L83 257z"/>
<path style="fill:#f3ccc7; stroke:none;" d="M245 257L246 258L245 257z"/>
<path style="fill:#f69688; stroke:none;" d="M84 258L85 259L84 258z"/>
<path style="fill:#efb5ad; stroke:none;" d="M85 259L86 260L85 259z"/>
<path style="fill:#f69688; stroke:none;" d="M242 259L243 260L242 259z"/>
<path style="fill:#efb5ad; stroke:none;" d="M241 260L242 261L241 260z"/>
<path style="fill:#f69688; stroke:none;" d="M88 261L89 262L88 261z"/>
<path style="fill:#efb5ad; stroke:none;" d="M89 262L90 263L89 262z"/>
<path style="fill:#f69688; stroke:none;" d="M238 262L239 263L238 262z"/>
<path style="fill:#f3ccc7; stroke:none;" d="M90 263L91 264L90 263z"/>
<path style="fill:#efb5ad; stroke:none;" d="M237 263L238 264L237 263z"/>
<path style="fill:#f69688; stroke:none;" d="M92 264L93 265L92 264z"/>
<path style="fill:#f3ccc7; stroke:none;" d="M236 264L237 265L236 264M93 265L94 266L93 265z"/>
<path style="fill:#f69688; stroke:none;" d="M234 265L235 266L234 265M95 266L96 267L95 266z"/>
<path style="fill:#f3ccc7; stroke:none;" d="M233 266L234 267L233 266z"/>
<path style="fill:#999898; stroke:none;" d="M12 267L13 268L12 267M32 267L33 268L32 267M52 267L53 268L52 267M72 267L73 268L72 267M92 267L93 268L92 267z"/>
<path style="fill:#f3ccc7; stroke:none;" d="M96 267L97 268L96 267z"/>
<path style="fill:#f69688; stroke:none;" d="M231 267L232 268L231 267z"/>
<path style="fill:#999898; stroke:none;" d="M232 267L233 268L232 267M252 267L253 268L252 267M272 267L273 268L272 267M292 267L293 268L292 267M312 267L313 268L312 267M332 267L333 268L332 267M352 267L353 268L352 267z"/>
<path style="fill:#f69688; stroke:none;" d="M98 268L99 269L98 268z"/>
<path style="fill:#f3ccc7; stroke:none;" d="M230 268L231 269L230 268M99 269L100 270L99 269z"/>
<path style="fill:#efb5ad; stroke:none;" d="M228 269L229 270L228 269z"/>
<path style="fill:#f3ccc7; stroke:none;" d="M101 270L102 271L101 270z"/>
<path style="fill:#f69688; stroke:none;" d="M226 270L227 271L226 270z"/>
<path style="fill:#efb5ad; stroke:none;" d="M103 271L104 272L103 271z"/>
<path style="fill:#f69688; stroke:none;" d="M224 271L225 272L224 271M105 272L106 273L105 272z"/>
<path style="fill:#efb5ad; stroke:none;" d="M223 272L224 273L223 272M221 273L222 274L221 273M218.667 274.333C218.222 274.778 219.278 274.722 219.333 274.667C219.778 274.222 218.722 274.278 218.667 274.333M111 275L112 276L111 275z"/>
<path style="fill:#f69688; stroke:none;" d="M216 275L217 276L216 275z"/>
<path style="fill:#efb5ad; stroke:none;" d="M113 276L114 277L113 276z"/>
<path style="fill:#f69688; stroke:none;" d="M214 276L215 277L214 276z"/>
<path style="fill:#f3ccc7; stroke:none;" d="M115 277L116 278L115 277z"/>
<path style="fill:#efb5ad; stroke:none;" d="M212 277L213 278L212 277z"/>
<path style="fill:#f69688; stroke:none;" d="M118.667 278.333C118.222 278.778 119.278 278.722 119.333 278.667C119.778 278.222 118.722 278.278 118.667 278.333z"/>
<path style="fill:#efb5ad; stroke:none;" d="M210 278L211 279L210 278z"/>
<path style="fill:#f69688; stroke:none;" d="M120.667 279.333C120.222 279.778 121.278 279.722 121.333 279.667C121.778 279.222 120.722 279.278 120.667 279.333M206 279C207.248 279.685 207.548 279.749 209 280C207.752 279.315 207.452 279.251 206 279z"/>
<path style="fill:#efb5ad; stroke:none;" d="M122.667 280.333C122.222 280.778 123.278 280.722 123.333 280.667C123.778 280.222 122.722 280.278 122.667 280.333z"/>
<path style="fill:#f69688; stroke:none;" d="M203.667 280.333C203.222 280.778 204.278 280.722 204.333 280.667C204.778 280.222 203.722 280.278 203.667 280.333z"/>
<path style="fill:#f3e0dd; stroke:none;" d="M205.667 280.333C205.222 280.778 206.278 280.722 206.333 280.667C206.778 280.222 205.722 280.278 205.667 280.333z"/>
<path style="fill:#f69688; stroke:none;" d="M126.667 281.333C126.222 281.778 127.278 281.722 127.333 281.667C127.778 281.222 126.722 281.278 126.667 281.333z"/>
<path style="fill:#dc948b; stroke:none;" d="M200.667 281.333C200.222 281.778 201.278 281.722 201.333 281.667C201.778 281.222 200.722 281.278 200.667 281.333z"/>
<path style="fill:#f69688; stroke:none;" d="M129.667 282.333C129.222 282.778 130.278 282.722 130.333 282.667C130.778 282.222 129.722 282.278 129.667 282.333z"/>
<path style="fill:#f3e0dd; stroke:none;" d="M198.667 282.333C198.222 282.778 199.278 282.722 199.333 282.667C199.778 282.222 198.722 282.278 198.667 282.333z"/>
<path style="fill:#f69688; stroke:none;" d="M133.667 283.333C133.222 283.778 134.278 283.722 134.333 283.667C134.778 283.222 133.722 283.278 133.667 283.333M192 283C193.248 283.685 193.548 283.749 195 284C193.752 283.315 193.452 283.251 192 283z"/>
<path style="fill:#efb5ad; stroke:none;" d="M136 284C137.248 284.685 137.548 284.749 139 285C137.752 284.315 137.452 284.251 136 284z"/>
<path style="fill:#f69688; stroke:none;" d="M139 284C140.248 284.685 140.548 284.749 142 285C140.752 284.315 140.452 284.251 139 284M186 284C187.506 284.683 188.315 284.826 190 285C188.494 284.317 187.685 284.174 186 284z"/>
<path style="fill:#f3ccc7; stroke:none;" d="M190 284C191.248 284.685 191.548 284.749 193 285C191.752 284.315 191.452 284.251 190 284z"/>
<path style="fill:#f3e0dd; stroke:none;" d="M139 285C140.248 285.685 140.548 285.749 142 286C140.752 285.315 140.452 285.251 139 285z"/>
<path style="fill:#efb5ad; stroke:none;" d="M142 285C143.248 285.685 143.548 285.749 145 286C143.752 285.315 143.452 285.251 142 285z"/>
<path style="fill:#f69688; stroke:none;" d="M181 285C182.248 285.685 182.548 285.749 184 286C182.752 285.315 182.452 285.251 181 285z"/>
<path style="fill:#efb5ad; stroke:none;" d="M184.667 285.333C184.222 285.778 185.278 285.722 185.333 285.667C185.778 285.222 184.722 285.278 184.667 285.333z"/>
<path style="fill:#f3e0dd; stroke:none;" d="M144 286C145.769 286.779 147.036 286.912 149 287C147.231 286.221 145.964 286.088 144 286z"/>
<path style="fill:#efb5ad; stroke:none;" d="M149.667 286.333C149.222 286.778 150.278 286.722 150.333 286.667C150.778 286.222 149.722 286.278 149.667 286.333z"/>
<path style="fill:#dc948b; stroke:none;" d="M151 286L152 288C153.635 287.455 153.455 287.635 154 286L151 286M172 286C174.052 286.874 175.747 286.953 178 287C175.948 286.126 174.253 286.047 172 286z"/>
<path style="fill:#f3e0dd; stroke:none;" d="M178 286C179.769 286.779 181.036 286.912 183 287C181.231 286.221 179.964 286.088 178 286z"/>
<path style="fill:#999898; stroke:none;" d="M12 287L13 288L12 287M32 287L33 288L32 287M52 287L53 288L52 287M72 287L73 288L72 287M92 287L93 288L92 287M112 287L113 288L112 287M132 287L133 288L132 287z"/>
<path style="fill:#f3e0dd; stroke:none;" d="M157 287C161.471 288.876 167.183 288 172 288C167.529 286.124 161.817 287 157 287z"/>
<path style="fill:#999898; stroke:none;" d="M172 287L173 288L172 287M192 287L193 288L192 287M212 287L213 288L212 287M232 287L233 288L232 287M252 287L253 288L252 287M272 287L273 288L272 287M292 287L293 288L292 287M312 287L313 288L312 287M332 287L333 288L332 287M352 287L353 288L352 287M12 307L13 308L12 307M32 307L33 308L32 307M52 307L53 308L52 307M72 307L73 308L72 307M92 307L93 308L92 307M112 307L113 308L112 307M132 307L133 308L132 307M152 307L153 308L152 307M172 307L173 308L172 307M192 307L193 308L192 307M212 307L213 308L212 307M232 307L233 308L232 307M252 307L253 308L252 307M272 307L273 308L272 307M292 307L293 308L292 307M312 307L313 308L312 307M332 307L333 308L332 307M352 307L353 308L352 307M12 327L13 328L12 327M32 327L33 328L32 327M52 327L53 328L52 327M72 327L73 328L72 327M92 327L93 328L92 327M112 327L113 328L112 327M132 327L133 328L132 327M152 327L153 328L152 327M172 327L173 328L172 327M192 327L193 328L192 327M212 327L213 328L212 327M232 327L233 328L232 327M252 327L253 328L252 327M272 327L273 328L272 327M292 327L293 328L292 327M312 327L313 328L312 327M332 327L333 328L332 327M352 327L353 328L352 327z"/>
</svg>
